<svg width="30" height="30" viewBox="0 0 30 30" fill="none" xmlns="http://www.w3.org/2000/svg">
<rect x="1" y="1" width="28" height="28" rx="14" fill="white"/>
<rect x="0.5" y="0.5" width="29" height="29" rx="14.5" stroke="black" stroke-opacity="0.08"/>
<g clip-path="url(#clip0_2506_29262)">
<path d="M20 9H10C9.73478 9 9.48043 9.10536 9.29289 9.29289C9.10536 9.48043 9 9.73478 9 10V20C9 20.2652 9.10536 20.5196 9.29289 20.7071C9.48043 20.8946 9.73478 21 10 21H20C20.2652 21 20.5196 20.8946 20.7071 20.7071C20.8946 20.5196 21 20.2652 21 20V10C21 9.73478 20.8946 9.48043 20.7071 9.29289C20.5196 9.10536 20.2652 9 20 9ZM17.8538 13.8538L14.3538 17.3538C14.3073 17.4002 14.2522 17.4371 14.1915 17.4623C14.1308 17.4874 14.0657 17.5004 14 17.5004C13.9343 17.5004 13.8692 17.4874 13.8085 17.4623C13.7478 17.4371 13.6927 17.4002 13.6462 17.3538L12.1462 15.8538C12.0524 15.7599 11.9997 15.6327 11.9997 15.5C11.9997 15.3673 12.0524 15.2401 12.1462 15.1462C12.2401 15.0524 12.3673 14.9997 12.5 14.9997C12.6327 14.9997 12.7599 15.0524 12.8538 15.1462C13.4867 15.7796 14.5134 15.7797 15.1464 15.1464L17.1462 13.1462C17.1927 13.0998 17.2479 13.0629 17.3086 13.0378C17.3692 13.0127 17.4343 12.9997 17.5 12.9997C17.5657 12.9997 17.6308 13.0127 17.6914 13.0378C17.7521 13.0629 17.8073 13.0998 17.8538 13.1462C17.9002 13.1927 17.9371 13.2479 17.9622 13.3086C17.9873 13.3692 18.0003 13.4343 18.0003 13.5C18.0003 13.5657 17.9873 13.6308 17.9622 13.6914C17.9371 13.7521 17.9002 13.8073 17.8538 13.8538Z" fill="#031E3C"/>
</g>
<defs>
<clipPath id="clip0_2506_29262">
<rect width="16" height="16" fill="white" transform="translate(7 7)"/>
</clipPath>
</defs>
</svg>
