<svg width="71" height="70" viewBox="0 0 71 70" fill="none" xmlns="http://www.w3.org/2000/svg">
<rect x="1.5" y="1" width="68" height="68" rx="34" fill="#FEEBCB"/>
<rect x="1.5" y="1" width="68" height="68" rx="34" stroke="#FFE0AC" stroke-width="2"/>
<g clip-path="url(#clip0_2513_30114)">
<path d="M34.5 24V21C34.5 20.7348 34.6054 20.4804 34.7929 20.2929C34.9804 20.1054 35.2348 20 35.5 20C35.7652 20 36.0196 20.1054 36.2071 20.2929C36.3946 20.4804 36.5 20.7348 36.5 21V24C36.5 24.2652 36.3946 24.5196 36.2071 24.7071C36.0196 24.8946 35.7652 25 35.5 25C35.2348 25 34.9804 24.8946 34.7929 24.7071C34.6054 24.5196 34.5 24.2652 34.5 24ZM35.5 27C33.9177 27 32.371 27.4692 31.0554 28.3482C29.7398 29.2273 28.7145 30.4767 28.109 31.9385C27.5035 33.4003 27.345 35.0089 27.6537 36.5607C27.9624 38.1126 28.7243 39.538 29.8431 40.6569C30.962 41.7757 32.3874 42.5376 33.9393 42.8463C35.4911 43.155 37.0997 42.9965 38.5615 42.391C40.0233 41.7855 41.2727 40.7602 42.1518 39.4446C43.0308 38.129 43.5 36.5823 43.5 35C43.4977 32.879 42.6541 30.8455 41.1543 29.3457C39.6545 27.8459 37.621 27.0023 35.5 27ZM26.7925 27.7075C26.9801 27.8951 27.2346 28.0006 27.5 28.0006C27.7654 28.0006 28.0199 27.8951 28.2075 27.7075C28.3951 27.5199 28.5006 27.2654 28.5006 27C28.5006 26.7346 28.3951 26.4801 28.2075 26.2925L26.2075 24.2925C26.0199 24.1049 25.7654 23.9994 25.5 23.9994C25.2346 23.9994 24.9801 24.1049 24.7925 24.2925C24.6049 24.4801 24.4994 24.7346 24.4994 25C24.4994 25.2654 24.6049 25.5199 24.7925 25.7075L26.7925 27.7075ZM26.7925 42.2925L24.7925 44.2925C24.6049 44.4801 24.4994 44.7346 24.4994 45C24.4994 45.2654 24.6049 45.5199 24.7925 45.7075C24.9801 45.8951 25.2346 46.0006 25.5 46.0006C25.7654 46.0006 26.0199 45.8951 26.2075 45.7075L28.2075 43.7075C28.3004 43.6146 28.3741 43.5043 28.4244 43.3829C28.4747 43.2615 28.5006 43.1314 28.5006 43C28.5006 42.8686 28.4747 42.7385 28.4244 42.6171C28.3741 42.4957 28.3004 42.3854 28.2075 42.2925C28.1146 42.1996 28.0043 42.1259 27.8829 42.0756C27.7615 42.0253 27.6314 41.9994 27.5 41.9994C27.3686 41.9994 27.2385 42.0253 27.1171 42.0756C26.9957 42.1259 26.8854 42.1996 26.7925 42.2925ZM43.5 28C43.6314 28.0001 43.7615 27.9743 43.8829 27.9241C44.0042 27.8739 44.1146 27.8003 44.2075 27.7075L46.2075 25.7075C46.3951 25.5199 46.5006 25.2654 46.5006 25C46.5006 24.7346 46.3951 24.4801 46.2075 24.2925C46.0199 24.1049 45.7654 23.9994 45.5 23.9994C45.2346 23.9994 44.9801 24.1049 44.7925 24.2925L42.7925 26.2925C42.6525 26.4324 42.5571 26.6106 42.5185 26.8047C42.4798 26.9988 42.4996 27.2 42.5754 27.3828C42.6511 27.5656 42.7794 27.7218 42.944 27.8317C43.1086 27.9416 43.3021 28.0002 43.5 28ZM44.2075 42.2925C44.0199 42.1049 43.7654 41.9994 43.5 41.9994C43.2346 41.9994 42.9801 42.1049 42.7925 42.2925C42.6049 42.4801 42.4994 42.7346 42.4994 43C42.4994 43.2654 42.6049 43.5199 42.7925 43.7075L44.7925 45.7075C44.8854 45.8004 44.9957 45.8741 45.1171 45.9244C45.2385 45.9747 45.3686 46.0006 45.5 46.0006C45.6314 46.0006 45.7615 45.9747 45.8829 45.9244C46.0043 45.8741 46.1146 45.8004 46.2075 45.7075C46.3004 45.6146 46.3741 45.5043 46.4244 45.3829C46.4747 45.2615 46.5006 45.1314 46.5006 45C46.5006 44.8686 46.4747 44.7385 46.4244 44.6171C46.3741 44.4957 46.3004 44.3854 46.2075 44.2925L44.2075 42.2925ZM25.5 35C25.5 34.7348 25.3946 34.4804 25.2071 34.2929C25.0196 34.1054 24.7652 34 24.5 34H21.5C21.2348 34 20.9804 34.1054 20.7929 34.2929C20.6054 34.4804 20.5 34.7348 20.5 35C20.5 35.2652 20.6054 35.5196 20.7929 35.7071C20.9804 35.8946 21.2348 36 21.5 36H24.5C24.7652 36 25.0196 35.8946 25.2071 35.7071C25.3946 35.5196 25.5 35.2652 25.5 35ZM35.5 45C35.2348 45 34.9804 45.1054 34.7929 45.2929C34.6054 45.4804 34.5 45.7348 34.5 46V49C34.5 49.2652 34.6054 49.5196 34.7929 49.7071C34.9804 49.8946 35.2348 50 35.5 50C35.7652 50 36.0196 49.8946 36.2071 49.7071C36.3946 49.5196 36.5 49.2652 36.5 49V46C36.5 45.7348 36.3946 45.4804 36.2071 45.2929C36.0196 45.1054 35.7652 45 35.5 45ZM49.5 34H46.5C46.2348 34 45.9804 34.1054 45.7929 34.2929C45.6054 34.4804 45.5 34.7348 45.5 35C45.5 35.2652 45.6054 35.5196 45.7929 35.7071C45.9804 35.8946 46.2348 36 46.5 36H49.5C49.7652 36 50.0196 35.8946 50.2071 35.7071C50.3946 35.5196 50.5 35.2652 50.5 35C50.5 34.7348 50.3946 34.4804 50.2071 34.2929C50.0196 34.1054 49.7652 34 49.5 34Z" fill="#C67E03"/>
</g>
<defs>
<clipPath id="clip0_2513_30114">
<rect width="32" height="32" fill="white" transform="translate(19.5 19)"/>
</clipPath>
</defs>
</svg>
