<svg width="71" height="70" viewBox="0 0 71 70" fill="none" xmlns="http://www.w3.org/2000/svg">
<rect x="1.5" y="1" width="68" height="68" rx="34" fill="#EBFCE6"/>
<rect x="1.5" y="1" width="68" height="68" rx="34" stroke="#89F969" stroke-width="2"/>
<g clip-path="url(#clip0_2513_30115)">
<path d="M48.9425 37.7762C48.1349 40.4124 46.5165 42.7267 44.3175 44.3899C42.3868 45.843 40.0894 46.7292 37.683 46.9491C35.2767 47.169 32.8567 46.7139 30.6946 45.6348C28.5325 44.5557 26.714 42.8954 25.4432 40.8402C24.1723 38.785 23.4994 36.4163 23.5 33.9999C23.4913 31.1795 24.4082 28.4341 26.11 26.1849C27.7732 23.9859 30.0875 22.3675 32.7238 21.5599C32.8975 21.5064 33.0825 21.5013 33.259 21.5451C33.4354 21.5889 33.5966 21.68 33.7251 21.8085C33.8537 21.9371 33.9448 22.0982 33.9886 22.2747C34.0324 22.4511 34.0272 22.6362 33.9738 22.8099C33.3973 24.7167 33.349 26.7441 33.8339 28.6762C34.3188 30.6083 35.3189 32.3727 36.7274 33.7812C38.136 35.1898 39.9003 36.1898 41.8324 36.6748C43.7645 37.1597 45.792 37.1114 47.6987 36.5349C47.8725 36.4814 48.0575 36.4763 48.234 36.5201C48.4104 36.5639 48.5716 36.655 48.7001 36.7835C48.8287 36.9121 48.9198 37.0732 48.9636 37.2497C49.0074 37.4261 49.0022 37.6112 48.9487 37.7849L48.9425 37.7762Z" fill="#041F3D"/>
</g>
<defs>
<clipPath id="clip0_2513_30115">
<rect width="32" height="32" fill="white" transform="translate(19.5 19)"/>
</clipPath>
</defs>
</svg>
