<svg width="293" height="36" viewBox="0 0 293 36" fill="none" xmlns="http://www.w3.org/2000/svg">
<rect width="293" height="36" rx="18" fill="white"/>
<rect x="0.5" y="0.5" width="292" height="35" rx="17.5" stroke="#031E3C" stroke-opacity="0.17"/>
<path d="M22 8L24.2451 14.9098H31.5106L25.6327 19.1803L27.8779 26.0902L22 21.8197L16.1221 26.0902L18.3673 19.1803L12.4894 14.9098H19.7549L22 8Z" fill="#F6BB56"/>
<path d="M42.22 25.16C41.4 25.16 40.94 24.68 40.94 23.84V13.04H37.04C36.34 13.04 35.94 12.64 35.94 11.96C35.94 11.28 36.34 10.9 37.04 10.9H47.4C48.1 10.9 48.5 11.28 48.5 11.96C48.5 12.64 48.1 13.04 47.4 13.04H43.5V23.84C43.5 24.68 43.06 25.16 42.22 25.16ZM51.2556 25.16C50.4556 25.16 50.0156 24.7 50.0156 23.88V12C50.0156 11.18 50.4556 10.74 51.2556 10.74C52.0556 10.74 52.5156 11.18 52.5156 12V16.64C53.1756 15.58 54.3556 15.02 55.7156 15.02C58.0556 15.02 59.1756 16.34 59.1756 19.04V23.88C59.1756 24.7 58.7356 25.16 57.9356 25.16C57.1356 25.16 56.6756 24.7 56.6756 23.88V19.16C56.6756 17.64 56.1156 16.98 54.9156 16.98C53.4556 16.98 52.5156 17.98 52.5156 19.5V23.88C52.5156 24.7 52.0756 25.16 51.2556 25.16ZM65.7348 25.2C62.4148 25.2 60.3748 23.24 60.3748 20.12C60.3748 17.1 62.4148 15.02 65.2748 15.02C68.0548 15.02 69.7748 16.9 69.7748 19.94C69.7748 20.42 69.4348 20.68 68.8148 20.68H62.7748C62.9548 22.44 63.9748 23.3 65.7748 23.3C66.4548 23.3 67.3948 23.16 68.1748 22.72C69.5548 21.94 70.2348 23.6 69.0348 24.34C68.0948 24.92 66.7748 25.2 65.7348 25.2ZM65.3748 16.72C63.8948 16.72 62.9748 17.68 62.7748 19.24H67.6948C67.5948 17.6 66.7948 16.72 65.3748 16.72ZM76.8244 28.76C76.0244 28.76 75.5844 28.32 75.5844 27.5V16.32C75.5844 15.5 76.0244 15.06 76.8044 15.06C77.6044 15.06 78.0444 15.5 78.0444 16.32V16.74C78.6044 15.68 79.8044 15.02 81.2244 15.02C83.7844 15.02 85.5244 16.96 85.5244 20.1C85.5244 23.24 83.8044 25.2 81.2244 25.2C79.8444 25.2 78.6644 24.56 78.0844 23.54V27.5C78.0844 28.32 77.6244 28.76 76.8244 28.76ZM80.5244 23.3C82.0044 23.3 83.0044 22.22 83.0044 20.1C83.0044 17.98 82.0044 16.92 80.5244 16.92C79.0244 16.92 78.0444 17.98 78.0444 20.1C78.0444 22.22 79.0244 23.3 80.5244 23.3ZM91.5966 25.2C88.2766 25.2 86.2366 23.24 86.2366 20.12C86.2366 17.1 88.2766 15.02 91.1366 15.02C93.9166 15.02 95.6366 16.9 95.6366 19.94C95.6366 20.42 95.2966 20.68 94.6766 20.68H88.6366C88.8166 22.44 89.8366 23.3 91.6366 23.3C92.3166 23.3 93.2566 23.16 94.0366 22.72C95.4166 21.94 96.0966 23.6 94.8966 24.34C93.9566 24.92 92.6366 25.2 91.5966 25.2ZM91.2366 16.72C89.7566 16.72 88.8366 17.68 88.6366 19.24H93.5566C93.4566 17.6 92.6566 16.72 91.2366 16.72ZM101.276 25.2C98.2364 25.2 96.2764 23.24 96.2764 20.1C96.2764 16.98 98.2364 15.02 101.276 15.02C104.296 15.02 106.276 16.98 106.276 20.1C106.276 23.24 104.296 25.2 101.276 25.2ZM101.276 23.3C102.756 23.3 103.756 22.22 103.756 20.1C103.756 17.98 102.756 16.92 101.276 16.92C99.7764 16.92 98.7964 17.98 98.7964 20.1C98.7964 22.22 99.7764 23.3 101.276 23.3ZM108.78 28.76C107.98 28.76 107.54 28.32 107.54 27.5V16.32C107.54 15.5 107.98 15.06 108.76 15.06C109.56 15.06 110 15.5 110 16.32V16.74C110.56 15.68 111.76 15.02 113.18 15.02C115.74 15.02 117.48 16.96 117.48 20.1C117.48 23.24 115.76 25.2 113.18 25.2C111.8 25.2 110.62 24.56 110.04 23.54V27.5C110.04 28.32 109.58 28.76 108.78 28.76ZM112.48 23.3C113.96 23.3 114.96 22.22 114.96 20.1C114.96 17.98 113.96 16.92 112.48 16.92C110.98 16.92 110 17.98 110 20.1C110 22.22 110.98 23.3 112.48 23.3ZM122.072 25.2C119.852 25.2 118.732 23.92 118.732 21.46V12C118.732 11.18 119.172 10.74 119.972 10.74C120.772 10.74 121.232 11.18 121.232 12V21.34C121.232 22.56 121.772 23.14 122.732 23.14C122.952 23.14 123.132 23.12 123.312 23.1C123.692 23.06 123.792 23.26 123.792 24.02C123.792 24.7 123.552 25.06 122.932 25.14C122.652 25.18 122.352 25.2 122.072 25.2ZM129.041 25.2C125.721 25.2 123.681 23.24 123.681 20.12C123.681 17.1 125.721 15.02 128.581 15.02C131.361 15.02 133.081 16.9 133.081 19.94C133.081 20.42 132.741 20.68 132.121 20.68H126.081C126.261 22.44 127.281 23.3 129.081 23.3C129.761 23.3 130.701 23.16 131.481 22.72C132.861 21.94 133.541 23.6 132.341 24.34C131.401 24.92 130.081 25.2 129.041 25.2ZM128.681 16.72C127.201 16.72 126.281 17.68 126.081 19.24H131.001C130.901 17.6 130.101 16.72 128.681 16.72ZM135.215 15.8C134.515 16.66 133.435 15.88 134.175 14.98C134.495 14.56 134.675 14.14 134.775 13.76C133.935 13.68 133.395 13.12 133.395 12.28C133.395 11.4 133.955 10.8 134.875 10.8C135.795 10.8 136.375 11.46 136.375 12.62C136.375 13.58 136.155 14.64 135.215 15.8ZM140.869 25.2C139.709 25.2 138.329 24.98 137.329 24.4C136.229 23.76 136.909 22.24 138.009 22.76C139.069 23.26 139.989 23.44 140.889 23.44C142.169 23.44 142.789 22.96 142.789 22.24C142.789 21.64 142.369 21.32 141.549 21.16L139.549 20.78C137.889 20.46 137.009 19.56 137.009 18.14C137.009 16.24 138.709 15.02 141.169 15.02C142.349 15.02 143.349 15.26 144.309 15.8C145.309 16.36 144.589 17.94 143.469 17.38C142.629 16.96 141.869 16.78 141.189 16.78C139.889 16.78 139.269 17.28 139.269 18.02C139.269 18.58 139.629 18.96 140.409 19.1L142.409 19.48C144.129 19.8 145.049 20.64 145.049 22.08C145.049 24.04 143.389 25.2 140.869 25.2ZM156.524 25.2C155.104 25.2 153.904 24.54 153.344 23.46V23.88C153.344 24.7 152.904 25.16 152.124 25.16C151.324 25.16 150.884 24.7 150.884 23.88V12C150.884 11.18 151.324 10.74 152.124 10.74C152.924 10.74 153.384 11.18 153.384 12V16.66C153.964 15.66 155.144 15.02 156.524 15.02C159.104 15.02 160.824 16.96 160.824 20.1C160.824 23.24 159.084 25.2 156.524 25.2ZM155.824 23.3C157.304 23.3 158.304 22.22 158.304 20.1C158.304 17.98 157.304 16.92 155.824 16.92C154.324 16.92 153.344 17.98 153.344 20.1C153.344 22.22 154.324 23.3 155.824 23.3ZM165.297 25.2C163.177 25.2 161.637 23.86 161.637 22.1C161.637 19.96 163.157 19.2 167.397 19.2H168.097V18.78C168.097 17.44 167.557 16.9 166.177 16.9C165.397 16.9 164.497 17.06 163.517 17.52C162.237 18.12 161.697 16.22 162.937 15.72C164.157 15.22 165.317 15.02 166.257 15.02C169.117 15.02 170.477 16.3 170.477 19.08V23.88C170.477 24.7 170.057 25.16 169.317 25.16C168.557 25.16 168.137 24.7 168.137 23.88V23.44C167.697 24.54 166.677 25.2 165.297 25.2ZM165.817 23.48C167.117 23.48 168.097 22.48 168.097 21.08V20.64H167.417C164.917 20.64 164.077 20.96 164.077 21.98C164.077 22.86 164.717 23.48 165.817 23.48ZM173.454 25.16C172.654 25.16 172.214 24.7 172.214 23.88V16.32C172.214 15.5 172.654 15.06 173.434 15.06C174.214 15.06 174.654 15.5 174.654 16.32V16.74C175.314 15.62 176.514 15.02 177.914 15.02C180.254 15.02 181.374 16.32 181.374 19.04V23.88C181.374 24.7 180.934 25.16 180.134 25.16C179.334 25.16 178.874 24.7 178.874 23.88V19.16C178.874 17.64 178.314 16.98 177.114 16.98C175.654 16.98 174.714 17.98 174.714 19.5V23.88C174.714 24.7 174.274 25.16 173.454 25.16ZM184.353 25.16C183.553 25.16 183.113 24.7 183.113 23.88V12C183.113 11.18 183.553 10.74 184.353 10.74C185.153 10.74 185.613 11.18 185.613 12V19.38H185.653L188.953 15.9C189.473 15.36 189.773 15.06 190.473 15.06C191.493 15.06 191.873 16 191.173 16.74L188.173 19.9L191.513 23.5C192.233 24.28 191.673 25.16 190.753 25.16C189.993 25.16 189.673 24.86 189.133 24.28L185.653 20.64H185.613V23.88C185.613 24.7 185.173 25.16 184.353 25.16ZM194.276 13.22C193.336 13.22 192.796 12.74 192.796 11.9C192.796 11.04 193.336 10.58 194.276 10.58C195.236 10.58 195.756 11.04 195.756 11.9C195.756 12.74 195.236 13.22 194.276 13.22ZM194.276 25.14C193.476 25.14 193.036 24.64 193.036 23.78V16.44C193.036 15.56 193.476 15.08 194.276 15.08C195.076 15.08 195.536 15.56 195.536 16.44V23.78C195.536 24.64 195.096 25.14 194.276 25.14ZM198.574 25.16C197.774 25.16 197.334 24.7 197.334 23.88V16.32C197.334 15.5 197.774 15.06 198.554 15.06C199.334 15.06 199.774 15.5 199.774 16.32V16.74C200.434 15.62 201.634 15.02 203.034 15.02C205.374 15.02 206.494 16.32 206.494 19.04V23.88C206.494 24.7 206.054 25.16 205.254 25.16C204.454 25.16 203.994 24.7 203.994 23.88V19.16C203.994 17.64 203.434 16.98 202.234 16.98C200.774 16.98 199.834 17.98 199.834 19.5V23.88C199.834 24.7 199.394 25.16 198.574 25.16ZM212.793 28.8C211.353 28.8 209.973 28.54 208.873 27.98C207.613 27.34 208.553 25.7 209.573 26.2C210.753 26.78 211.833 26.9 212.593 26.9C214.373 26.9 215.273 26.04 215.273 24.32V22.98C214.713 24.08 213.473 24.76 212.053 24.76C209.413 24.76 207.693 22.8 207.693 19.88C207.693 16.96 209.413 15.02 212.053 15.02C213.473 15.02 214.693 15.68 215.233 16.74V16.32C215.233 15.5 215.693 15.06 216.473 15.06C217.273 15.06 217.713 15.5 217.713 16.32V24.02C217.713 27.2 215.993 28.8 212.793 28.8ZM212.733 22.86C214.273 22.86 215.253 21.72 215.253 19.88C215.253 18.04 214.273 16.92 212.733 16.92C211.193 16.92 210.213 18.04 210.213 19.88C210.213 21.72 211.193 22.86 212.733 22.86ZM228.653 25.2C225.553 25.2 223.593 23.2 223.593 20.06C223.593 16.94 225.553 15.02 228.653 15.02C229.533 15.02 230.633 15.24 231.533 15.8C232.593 16.46 231.753 18.1 230.653 17.48C230.053 17.14 229.433 16.96 228.873 16.96C227.133 16.96 226.153 18.08 226.153 20.08C226.153 22.06 227.133 23.26 228.873 23.26C229.433 23.26 230.033 23.1 230.653 22.76C231.793 22.14 232.453 23.82 231.453 24.44C230.573 24.98 229.533 25.2 228.653 25.2ZM234.006 25.16C233.206 25.16 232.766 24.7 232.766 23.88V12C232.766 11.18 233.206 10.74 234.006 10.74C234.806 10.74 235.266 11.18 235.266 12V16.64C235.926 15.58 237.106 15.02 238.466 15.02C240.806 15.02 241.926 16.34 241.926 19.04V23.88C241.926 24.7 241.486 25.16 240.686 25.16C239.886 25.16 239.426 24.7 239.426 23.88V19.16C239.426 17.64 238.866 16.98 237.666 16.98C236.206 16.98 235.266 17.98 235.266 19.5V23.88C235.266 24.7 234.826 25.16 234.006 25.16ZM248.126 25.2C245.086 25.2 243.126 23.24 243.126 20.1C243.126 16.98 245.086 15.02 248.126 15.02C251.146 15.02 253.126 16.98 253.126 20.1C253.126 23.24 251.146 25.2 248.126 25.2ZM248.126 23.3C249.606 23.3 250.606 22.22 250.606 20.1C250.606 17.98 249.606 16.92 248.126 16.92C246.626 16.92 245.646 17.98 245.646 20.1C245.646 22.22 246.626 23.3 248.126 23.3ZM255.629 13.22C254.689 13.22 254.149 12.74 254.149 11.9C254.149 11.04 254.689 10.58 255.629 10.58C256.589 10.58 257.109 11.04 257.109 11.9C257.109 12.74 256.589 13.22 255.629 13.22ZM255.629 25.14C254.829 25.14 254.389 24.64 254.389 23.78V16.44C254.389 15.56 254.829 15.08 255.629 15.08C256.429 15.08 256.889 15.56 256.889 16.44V23.78C256.889 24.64 256.449 25.14 255.629 25.14ZM263.207 25.2C260.107 25.2 258.147 23.2 258.147 20.06C258.147 16.94 260.107 15.02 263.207 15.02C264.087 15.02 265.187 15.24 266.087 15.8C267.147 16.46 266.307 18.1 265.207 17.48C264.607 17.14 263.987 16.96 263.427 16.96C261.687 16.96 260.707 18.08 260.707 20.08C260.707 22.06 261.687 23.26 263.427 23.26C263.987 23.26 264.587 23.1 265.207 22.76C266.347 22.14 267.007 23.82 266.007 24.44C265.127 24.98 264.087 25.2 263.207 25.2ZM271.945 25.2C268.625 25.2 266.585 23.24 266.585 20.12C266.585 17.1 268.625 15.02 271.485 15.02C274.265 15.02 275.985 16.9 275.985 19.94C275.985 20.42 275.645 20.68 275.025 20.68H268.985C269.165 22.44 270.185 23.3 271.985 23.3C272.665 23.3 273.605 23.16 274.385 22.72C275.765 21.94 276.445 23.6 275.245 24.34C274.305 24.92 272.985 25.2 271.945 25.2ZM271.585 16.72C270.105 16.72 269.185 17.68 268.985 19.24H273.905C273.805 17.6 273.005 16.72 271.585 16.72Z" fill="#031E3C"/>
</svg>
