<svg width="30" height="30" viewBox="0 0 30 30" fill="none" xmlns="http://www.w3.org/2000/svg">
<rect x="1" y="1" width="28" height="28" rx="14" fill="white"/>
<rect x="0.5" y="0.5" width="29" height="29" rx="14.5" stroke="black" stroke-opacity="0.08"/>
<g clip-path="url(#clip0_2506_29270)">
<path d="M22.5 20.0003C22.5 20.1329 22.4473 20.2601 22.3536 20.3539C22.2598 20.4476 22.1326 20.5003 22 20.5003H8C7.86739 20.5003 7.74021 20.4476 7.64645 20.3539C7.55268 20.2601 7.5 20.1329 7.5 20.0003C7.5 19.8677 7.55268 19.7405 7.64645 19.6468C7.74021 19.553 7.86739 19.5003 8 19.5003H22C22.1326 19.5003 22.2598 19.553 22.3536 19.6468C22.4473 19.7405 22.5 19.8677 22.5 20.0003ZM8.01875 13.1366C7.98901 13.0317 7.99435 12.92 8.03395 12.8185C8.07355 12.7169 8.14525 12.6311 8.23812 12.5741L14.7381 8.57406C14.8169 8.52564 14.9075 8.5 15 8.5C15.0925 8.5 15.1831 8.52564 15.2619 8.57406L21.7619 12.5741C21.8548 12.631 21.9265 12.7168 21.9662 12.8183C22.0059 12.9198 22.0113 13.0315 21.9817 13.1363C21.952 13.2412 21.8889 13.3335 21.802 13.3992C21.715 13.4649 21.609 13.5004 21.5 13.5003H20V17.5003H21C21.1326 17.5003 21.2598 17.553 21.3536 17.6468C21.4473 17.7405 21.5 17.8677 21.5 18.0003C21.5 18.1329 21.4473 18.2601 21.3536 18.3539C21.2598 18.4476 21.1326 18.5003 21 18.5003H9C8.86739 18.5003 8.74021 18.4476 8.64645 18.3539C8.55268 18.2601 8.5 18.1329 8.5 18.0003C8.5 17.8677 8.55268 17.7405 8.64645 17.6468C8.74021 17.553 8.86739 17.5003 9 17.5003H10V13.5003H8.5C8.39112 13.5004 8.2852 13.4648 8.19834 13.3992C8.11148 13.3335 8.04842 13.2413 8.01875 13.1366ZM16 17.0003C16 17.1329 16.0527 17.2601 16.1464 17.3539C16.2402 17.4476 16.3674 17.5003 16.5 17.5003C16.6326 17.5003 16.7598 17.4476 16.8536 17.3539C16.9473 17.2601 17 17.1329 17 17.0003V14.0003C17 13.8677 16.9473 13.7405 16.8536 13.6468C16.7598 13.553 16.6326 13.5003 16.5 13.5003C16.3674 13.5003 16.2402 13.553 16.1464 13.6468C16.0527 13.7405 16 13.8677 16 14.0003V17.0003ZM13 17.0003C13 17.1329 13.0527 17.2601 13.1464 17.3539C13.2402 17.4476 13.3674 17.5003 13.5 17.5003C13.6326 17.5003 13.7598 17.4476 13.8536 17.3539C13.9473 17.2601 14 17.1329 14 17.0003V14.0003C14 13.8677 13.9473 13.7405 13.8536 13.6468C13.7598 13.553 13.6326 13.5003 13.5 13.5003C13.3674 13.5003 13.2402 13.553 13.1464 13.6468C13.0527 13.7405 13 13.8677 13 14.0003V17.0003Z" fill="#06213E"/>
</g>
<defs>
<clipPath id="clip0_2506_29270">
<rect width="16" height="16" fill="white" transform="translate(7 7)"/>
</clipPath>
</defs>
</svg>
