<svg width="30" height="30" viewBox="0 0 30 30" fill="none" xmlns="http://www.w3.org/2000/svg">
<rect x="1" y="1" width="28" height="28" rx="14" fill="white"/>
<rect x="0.5" y="0.5" width="29" height="29" rx="14.5" stroke="black" stroke-opacity="0.08"/>
<g clip-path="url(#clip0_2506_29286)">
<path d="M21.985 16.8787L20.58 11.2575C20.5259 11.0411 20.401 10.8489 20.2251 10.7117C20.0492 10.5744 19.8325 10.4999 19.6094 10.5H15.5V9.5C15.5 9.23478 15.3946 8.98043 15.2071 8.79289C15.0196 8.60536 14.7652 8.5 14.5 8.5H12C11.7348 8.5 11.4804 8.60536 11.2929 8.79289C11.1054 8.98043 11 9.23478 11 9.5V10.5H10.3906C10.1675 10.4999 9.95079 10.5744 9.77491 10.7117C9.59903 10.8489 9.4741 11.0411 9.42 11.2575L8.015 16.8787C8.00502 16.9184 7.99998 16.9591 8 17V19C8 19.2652 8.10536 19.5196 8.29289 19.7071C8.48043 19.8946 8.73478 20 9 20H21C21.2652 20 21.5196 19.8946 21.7071 19.7071C21.8946 19.5196 22 19.2652 22 19V17C22 16.9591 21.995 16.9184 21.985 16.8787ZM17.5 12.5H18.5C18.6326 12.5 18.7598 12.5527 18.8536 12.6464C18.9473 12.7402 19 12.8674 19 13C19 13.1326 18.9473 13.2598 18.8536 13.3536C18.7598 13.4473 18.6326 13.5 18.5 13.5H17.5C17.3674 13.5 17.2402 13.4473 17.1464 13.3536C17.0527 13.2598 17 13.1326 17 13C17 12.8674 17.0527 12.7402 17.1464 12.6464C17.2402 12.5527 17.3674 12.5 17.5 12.5ZM17.5 14.5H18.5C18.6326 14.5 18.7598 14.5527 18.8536 14.6464C18.9473 14.7402 19 14.8674 19 15C19 15.1326 18.9473 15.2598 18.8536 15.3536C18.7598 15.4473 18.6326 15.5 18.5 15.5H17.5C17.3674 15.5 17.2402 15.4473 17.1464 15.3536C17.0527 15.2598 17 15.1326 17 15C17 14.8674 17.0527 14.7402 17.1464 14.6464C17.2402 14.5527 17.3674 14.5 17.5 14.5ZM15.5 12.5C15.6326 12.5 15.7598 12.5527 15.8536 12.6464C15.9473 12.7402 16 12.8674 16 13C16 13.1326 15.9473 13.2598 15.8536 13.3536C15.7598 13.4473 15.6326 13.5 15.5 13.5H14.5C14.3674 13.5 14.2402 13.4473 14.1464 13.3536C14.0527 13.2598 14 13.1326 14 13C14 12.8674 14.0527 12.7402 14.1464 12.6464C14.2402 12.5527 14.3674 12.5 14.5 12.5H15.5ZM16 15C16 15.1326 15.9473 15.2598 15.8536 15.3536C15.7598 15.4473 15.6326 15.5 15.5 15.5H14.5C14.3674 15.5 14.2402 15.4473 14.1464 15.3536C14.0527 15.2598 14 15.1326 14 15C14 14.8674 14.0527 14.7402 14.1464 14.6464C14.2402 14.5527 14.3674 14.5 14.5 14.5H15.5C15.6326 14.5 15.7598 14.5527 15.8536 14.6464C15.9473 14.7402 16 14.8674 16 15ZM12 9.5H14.5V10.5H12V9.5ZM11.5 12.5H12.5C12.6326 12.5 12.7598 12.5527 12.8536 12.6464C12.9473 12.7402 13 12.8674 13 13C13 13.1326 12.9473 13.2598 12.8536 13.3536C12.7598 13.4473 12.6326 13.5 12.5 13.5H11.5C11.3674 13.5 11.2402 13.4473 11.1464 13.3536C11.0527 13.2598 11 13.1326 11 13C11 12.8674 11.0527 12.7402 11.1464 12.6464C11.2402 12.5527 11.3674 12.5 11.5 12.5ZM11.5 14.5H12.5C12.6326 14.5 12.7598 14.5527 12.8536 14.6464C12.9473 14.7402 13 14.8674 13 15C13 15.1326 12.9473 15.2598 12.8536 15.3536C12.7598 15.4473 12.6326 15.5 12.5 15.5H11.5C11.3674 15.5 11.2402 15.4473 11.1464 15.3536C11.0527 15.2598 11 15.1326 11 15C11 14.8674 11.0527 14.7402 11.1464 14.6464C11.2402 14.5527 11.3674 14.5 11.5 14.5ZM21 19H9V17.5H21V19Z" fill="#05203E"/>
</g>
<defs>
<clipPath id="clip0_2506_29286">
<rect width="16" height="16" fill="white" transform="translate(7 7)"/>
</clipPath>
</defs>
</svg>
