<svg width="30" height="30" viewBox="0 0 30 30" fill="none" xmlns="http://www.w3.org/2000/svg">
<rect x="1" y="1" width="28" height="28" rx="14" fill="white"/>
<rect x="0.5" y="0.5" width="29" height="29" rx="14.5" stroke="black" stroke-opacity="0.08"/>
<g clip-path="url(#clip0_2506_29257)">
<path d="M20.3656 14.8408L13.3656 22.3408C13.2915 22.42 13.1936 22.4729 13.0867 22.4915C12.9798 22.5101 12.8698 22.4935 12.7732 22.4441C12.6766 22.3947 12.5987 22.3153 12.5512 22.2177C12.5037 22.1201 12.4893 22.0098 12.51 21.9033L13.4263 17.3202L9.8244 15.9677C9.74704 15.9388 9.67806 15.8911 9.62361 15.829C9.56916 15.7669 9.53095 15.6923 9.51238 15.6118C9.49381 15.5313 9.49546 15.4475 9.51719 15.3678C9.53892 15.2882 9.58004 15.2151 9.6369 15.1552L16.6369 7.65519C16.7111 7.57603 16.809 7.52314 16.9159 7.5045C17.0227 7.48587 17.1328 7.5025 17.2294 7.55189C17.326 7.60128 17.4039 7.68075 17.4514 7.7783C17.4988 7.87586 17.5133 7.9862 17.4925 8.09269L16.5738 12.6808L20.1756 14.0314C20.2524 14.0606 20.3209 14.1082 20.3749 14.17C20.4289 14.2319 20.4669 14.3061 20.4854 14.3861C20.5039 14.4661 20.5025 14.5494 20.4812 14.6287C20.4598 14.7081 20.4193 14.7809 20.3631 14.8408H20.3656Z" fill="#082240"/>
</g>
<defs>
<clipPath id="clip0_2506_29257">
<rect width="16" height="16" fill="white" transform="translate(7 7)"/>
</clipPath>
</defs>
</svg>
